<svg xmlns="http://www.w3.org/2000/svg" width="572" height="7" viewBox="0 0 572 7">
  <defs>
    <linearGradient id="gradient" x1="0%" y1="0%" x2="100%" y2="0%">
      <stop offset="0%" stop-color="#6dd0ee" stop-opacity="0.6" />
      <stop offset="100%" stop-color="#6a4d32" stop-opacity="0.6" />
    </linearGradient>
  </defs>
  <path class="cut-line" fill="url('#gradient')" d="M1223.28,241.015c0.23,0,.46-0.011.68-0.031a3.908,3.908,0,0,0,1.51-.382l8.04-4.73,26.76,4.839a7.359,7.359,0,0,0,2.64-.03c0.79-.168,1.2-0.463,1.06-0.758L1262.11,236a4.178,4.178,0,0,0,1.55-.367c0.69-.372.28-0.848-0.91-1.063l-2.48-.45a7.378,7.378,0,0,0-2.64.03c-0.79.169-1.2,0.463-1.06,0.758l1.73,3.648-24.54-4.436a7.413,7.413,0,0,0-1.92-.075,3.838,3.838,0,0,0-1.51.383l-8.04,4.73-27.86-5.039a7.548,7.548,0,0,0-2.06-.062l-49.28,5.325-29.11-5.265a7.483,7.483,0,0,0-2.14-.051l-43.49,5.305-29.06-5.255a7.51,7.51,0,0,0-2.13-.054,2.855,2.855,0,0,0-1.47.483l-4.78,4.533-27.45-4.963a6.951,6.951,0,0,0-3.01.129l-15.7,5.01-28.427-5.14a6.383,6.383,0,0,0-3.336.254l-9.838,4.815-28.038-5.07a7.487,7.487,0,0,0-2.146-.051l-43.388,5.3-29.059-5.254a6.753,6.753,0,0,0-3.169.182c-0.771.3-.742,0.723,0.069,1.009l5.227,1.841-16.772-3.033A7.181,7.181,0,0,0,823,234.2c-0.8.22-1.065,0.575-.658,0.883l4.39,3.324-23.758-4.3a6.918,6.918,0,0,0-3.063.144l-14.8,4.987-28.379-5.132a6.939,6.939,0,0,0-3.048.139l-15.083,5L710.2,234.11a6.5,6.5,0,0,0-3.288.232l-10.682,4.85-0.5-.09a6.229,6.229,0,0,0-3.395.285c-0.686.372-.279,0.848,0.91,1.063l2.482,0.449a6.5,6.5,0,0,0,3.288-.232l10.681-4.85,28.109,5.083a6.938,6.938,0,0,0,3.048-.139l15.083-5,28.4,5.135a6.916,6.916,0,0,0,3.062-.144l14.8-4.987L830.58,240.9a7.18,7.18,0,0,0,2.881-.089c0.8-.22,1.065-0.575.658-0.883l-4.39-3.324,23.757,4.3a6.754,6.754,0,0,0,3.169-.182c0.771-.3.742-0.724-0.07-1.009l-5.228-1.842,16.774,3.034a7.564,7.564,0,0,0,2.146.051l43.388-5.305,29.061,5.255a6.38,6.38,0,0,0,3.336-.254l9.838-4.815,28.038,5.07a7.013,7.013,0,0,0,3.016-.129l15.7-5.01,28.42,5.14a7.521,7.521,0,0,0,2.13.053,2.889,2.889,0,0,0,1.48-.483l4.77-4.533,27.45,4.964a7.543,7.543,0,0,0,2.15.051l43.48-5.305,29.06,5.255a7.423,7.423,0,0,0,2.05.062l49.28-5.324,29.11,5.264A7.2,7.2,0,0,0,1223.28,241.015Z" transform="translate(-692 -234)"/>
</svg>
