<svg xmlns="http://www.w3.org/2000/svg" width="572" height="6.969" viewBox="0 0 572 6.969">
  <defs>
    <linearGradient id="gradient" x1="0%" y1="0%" x2="100%" y2="0%">
      <stop offset="0%" stop-color="#6dd0ee" stop-opacity="0.6" />
      <stop offset="100%" stop-color="#6a4d32" stop-opacity="0.6" />
    </linearGradient>
  </defs>
  <path class="cut-line" fill="url('#gradient')" d="M732.723,191.983c-0.23,0-.46-0.01-0.685-0.03a3.894,3.894,0,0,1-1.509-.381l-8.036-4.709-26.761,4.818a7.408,7.408,0,0,1-2.641-.03c-0.788-.167-1.2-0.46-1.06-0.755l1.86-3.9a4.206,4.206,0,0,1-1.554-.364c-0.686-.371-0.279-0.845.909-1.059l2.486-.447a7.408,7.408,0,0,1,2.641.03c0.788,0.167,1.2.46,1.06,0.754l-1.729,3.632,24.533-4.417a7.517,7.517,0,0,1,1.926-.074,3.9,3.9,0,0,1,1.51.381l8.036,4.709,27.865-5.017a7.526,7.526,0,0,1,2.053-.061l49.278,5.3,29.112-5.241a7.51,7.51,0,0,1,2.144-.051l43.486,5.281,29.061-5.232a7.535,7.535,0,0,1,2.127-.053,2.868,2.868,0,0,1,1.475.481l4.778,4.513,27.448-4.942a7.028,7.028,0,0,1,3.016.129l15.693,4.988,28.427-5.118a6.419,6.419,0,0,1,3.338.254l9.84,4.793,28.03-5.047a7.525,7.525,0,0,1,2.15-.051l43.39,5.281,29.06-5.232a6.8,6.8,0,0,1,3.17.181c0.77,0.295.74,0.721-.07,1l-5.23,1.833,16.77-3.019a7.191,7.191,0,0,1,2.88.088c0.8,0.219,1.07.572,0.66,0.879l-4.39,3.309,23.76-4.277a6.955,6.955,0,0,1,3.06.144l14.8,4.964,28.38-5.109a6.988,6.988,0,0,1,3.05.139l15.09,4.972,28.39-5.112a6.55,6.55,0,0,1,3.29.231l10.68,4.829,0.5-.09a6.234,6.234,0,0,1,3.39.284c0.69,0.371.28,0.844-.91,1.058l-2.48.447a6.538,6.538,0,0,1-3.29-.231l-10.68-4.828-28.11,5.06a7,7,0,0,1-3.05-.138l-15.08-4.973-28.4,5.112a6.956,6.956,0,0,1-3.06-.143l-14.8-4.965-28.38,5.109a7.209,7.209,0,0,1-2.88-.088c-0.8-.219-1.07-0.573-0.66-0.879l4.39-3.309-23.76,4.277a6.746,6.746,0,0,1-3.16-.182c-0.78-.295-0.75-0.72.06-1l5.23-1.834-16.77,3.02a7.6,7.6,0,0,1-2.15.051l-43.39-5.281-29.06,5.232a6.386,6.386,0,0,1-3.33-.254l-9.84-4.793-28.038,5.047a7.029,7.029,0,0,1-3.016-.128l-15.693-4.988-28.426,5.117a7.534,7.534,0,0,1-2.127.053,2.855,2.855,0,0,1-1.475-.481l-4.778-4.513L889.1,191.876a7.586,7.586,0,0,1-2.144.051l-43.486-5.281-29.06,5.231a7.527,7.527,0,0,1-2.053.062l-49.278-5.3-29.113,5.241A7.1,7.1,0,0,1,732.723,191.983Z" transform="translate(-692 -185)"/>
</svg>
