<svg version="1.0" xmlns="http://www.w3.org/2000/svg" viewBox="0 0 629.000000 550.000000"
 preserveAspectRatio="xMidYMid meet">
<g transform="translate(0.000000,550.000000) scale(0.100000,-0.100000)"
fill="#000000" stroke="none">
<path d="M2385 5479 c-107 -20 -343 -83 -469 -126 -456 -156 -805 -361 -1108
-652 l-126 -121 -336 0 -336 0 0 -105 0 -105 253 0 c140 0 256 -2 258 -5 3 -2
-34 -83 -81 -179 -52 -103 -105 -230 -133 -312 -40 -121 -56 -187 -107 -434
-21 -104 -29 -416 -15 -580 11 -119 52 -328 89 -451 36 -119 57 -219 50 -231
-3 -4 -1 -25 5 -45 5 -21 12 -55 14 -76 3 -20 9 -43 14 -50 6 -6 20 -57 32
-112 13 -55 39 -158 58 -230 20 -71 37 -145 39 -163 1 -18 7 -38 12 -45 5 -7
31 -75 57 -152 26 -77 70 -196 97 -265 28 -69 59 -145 67 -170 9 -25 24 -56
33 -70 9 -14 33 -61 54 -105 71 -151 79 -167 99 -189 11 -12 42 -56 69 -97 74
-113 166 -227 239 -296 60 -58 69 -63 110 -63 29 0 53 7 69 19 26 21 125 206
174 326 15 39 32 72 35 75 4 3 14 32 22 65 25 103 64 219 73 222 5 2 20 -25
33 -59 33 -89 43 -109 68 -144 13 -17 23 -34 23 -37 0 -12 128 -226 201 -335
81 -123 114 -149 174 -138 50 10 113 89 261 334 99 162 264 514 264 561 0 16
29 19 210 20 96 0 249 5 340 12 91 6 194 12 230 15 l65 3 -3 -362 c-4 -447 -1
-480 43 -524 46 -46 89 -45 193 7 44 22 84 40 90 40 6 0 17 8 24 18 7 10 29
29 48 42 43 29 154 122 158 133 2 4 9 7 15 7 13 0 162 173 245 284 30 39 79
114 110 166 31 52 64 103 74 113 10 10 18 24 18 32 0 17 67 165 74 165 3 0 65
-33 137 -72 140 -78 196 -124 318 -268 86 -102 326 -424 444 -596 104 -152
127 -172 191 -160 56 11 86 55 88 129 0 34 2 67 3 72 1 6 5 120 9 255 11 314
9 570 -4 849 -6 122 -8 227 -4 232 3 5 1 40 -5 77 -6 37 -15 132 -21 212 -19
241 -59 521 -95 662 -22 85 67 -46 155 -227 70 -147 126 -314 136 -405 1 -14
9 -52 18 -85 9 -33 19 -96 22 -140 3 -44 8 -125 12 -180 l7 -100 108 -3 107
-3 1 73 c1 40 1 77 0 82 -1 4 -4 53 -6 108 -5 117 -10 151 -35 238 -10 36 -26
99 -35 140 -26 108 -90 279 -150 400 -188 375 -493 678 -875 870 -36 18 -67
36 -70 40 -3 5 -88 36 -190 69 -102 33 -193 65 -203 71 -10 6 -50 15 -90 20
-40 5 -94 13 -122 19 -67 13 -148 25 -158 23 -4 -1 -60 4 -125 12 -413 49
-560 69 -579 78 -12 6 -28 8 -35 5 -12 -4 -119 8 -553 63 -49 6 -108 13 -130
16 -22 2 -52 7 -66 10 -15 3 -48 7 -74 9 -26 2 -49 6 -51 8 -3 2 13 105 35
228 22 123 43 247 46 274 11 90 -16 113 -185 160 -52 14 -102 29 -110 32 -8 3
-22 7 -30 8 -25 4 -231 81 -294 110 -57 26 -59 28 -40 42 40 30 292 150 364
172 77 25 87 27 153 37 20 4 40 11 43 16 3 5 1 54 -6 109 -11 90 -14 99 -34
100 -11 1 -25 0 -31 -1 -160 -36 -261 -70 -389 -130 -92 -42 -265 -141 -313
-178 l-33 -24 -67 43 c-70 45 -241 206 -262 247 -11 21 -8 24 66 58 227 106
466 181 727 229 l121 22 -3 79 c-1 43 -5 94 -8 112 -5 36 -11 37 -99 21z
m-970 -664 c84 -122 283 -285 478 -390 48 -26 87 -48 87 -50 0 -2 -9 -19 -21
-39 -20 -34 -25 -111 -8 -138 7 -12 -11 -26 -96 -74 -16 -9 -43 -27 -58 -40
-16 -13 -34 -24 -41 -24 -7 0 -20 -8 -30 -19 -9 -10 -34 -26 -56 -36 -22 -10
-40 -22 -40 -27 0 -4 -6 -8 -12 -8 -7 -1 -55 -29 -107 -64 l-94 -63 -40 39
c-145 137 -396 150 -556 29 -62 -47 -101 -95 -141 -176 -33 -66 -41 -94 -45
-160 -4 -44 -8 -81 -9 -83 -2 -1 -23 -5 -47 -8 -24 -3 -51 -7 -59 -9 -8 -3
-32 -7 -54 -11 l-38 -6 7 44 c12 80 63 263 100 364 143 384 411 718 769 958
39 25 70 46 71 46 1 0 19 -25 40 -55z m711 -501 c28 -13 73 -32 100 -42 45
-16 49 -20 46 -47 -8 -63 -65 -105 -137 -100 -84 5 -140 71 -131 153 9 79 21
82 122 36z m276 -103 c29 -11 81 -27 116 -37 34 -9 62 -22 62 -28 0 -21 -59
-337 -64 -345 -3 -4 -34 -11 -69 -15 -35 -3 -116 -20 -180 -36 -65 -17 -123
-28 -129 -24 -7 5 -8 3 -3 -6 6 -10 1 -12 -18 -8 -15 3 -24 2 -22 -2 3 -4 -17
-16 -43 -25 -26 -10 -78 -33 -117 -51 -65 -30 -71 -31 -88 -16 -23 21 -104 24
-139 6 -27 -14 -69 -66 -76 -94 -3 -8 -4 -30 -4 -47 0 -27 -7 -38 -41 -64 -23
-18 -65 -54 -93 -81 l-51 -49 41 83 c38 77 40 88 41 173 0 94 -17 160 -58 218
-10 16 -17 30 -15 32 2 2 35 24 73 49 39 24 82 54 97 65 14 12 30 21 36 21 5
0 26 14 47 30 21 17 42 30 47 30 9 0 92 53 138 88 14 11 35 22 47 26 11 4 26
13 33 21 10 12 15 11 35 -9 63 -63 179 -70 254 -16 28 19 71 92 71 118 0 16
11 15 72 -7z m-1175 -306 c56 -22 80 -39 136 -97 37 -40 67 -79 67 -88 0 -9 3
-20 7 -24 8 -7 8 -8 22 -87 16 -95 -11 -222 -62 -286 -27 -34 -75 -83 -80 -83
-4 0 -15 -7 -26 -16 -53 -46 -201 -73 -284 -53 -28 7 -54 13 -57 14 -16 1
-120 68 -148 95 -69 66 -111 187 -105 299 14 261 278 423 530 326z m1088 -402
c-6 -35 -62 -109 -73 -98 -3 3 -11 0 -18 -5 -15 -13 -54 -21 -54 -12 0 4 -12
8 -27 9 -14 0 -30 8 -35 17 -5 9 -15 16 -22 16 -8 0 -16 6 -19 14 -4 10 18 22
81 45 82 28 146 48 166 50 4 1 5 -16 1 -36z m220 8 c83 -11 173 -22 200 -26
28 -3 66 -8 85 -12 19 -3 43 -5 53 -4 11 2 17 -5 17 -18 0 -12 5 -21 10 -21 6
0 10 -6 10 -13 0 -16 46 -58 54 -50 3 4 6 2 6 -3 0 -5 26 -9 57 -8 53 1 62 4
98 38 36 34 44 37 80 32 22 -3 97 -13 167 -22 l126 -17 -13 -36 c-34 -94 -33
-93 -56 -80 -12 6 -36 13 -53 16 -17 3 -38 9 -46 13 -8 5 -22 4 -32 -1 -12 -7
-18 -6 -18 1 0 7 -6 7 -21 0 -14 -8 -24 -8 -33 -1 -7 6 -15 8 -18 6 -3 -3 -15
-8 -27 -10 -11 -3 -31 -8 -43 -11 -13 -3 -27 -6 -33 -8 -5 -1 -21 -8 -35 -16
-14 -8 -27 -14 -30 -15 -16 -1 -89 -71 -115 -110 -29 -43 -45 -56 -45 -35 0 6
-6 10 -13 10 -8 0 -22 9 -32 20 -10 11 -26 20 -37 20 -10 0 -18 4 -18 8 0 8
-59 46 -73 47 -4 0 -11 5 -15 10 -10 14 -147 105 -158 105 -5 0 -17 8 -26 18
-26 27 -46 42 -58 42 -6 0 -22 11 -36 25 -14 14 -31 25 -39 25 -17 0 -19 12
-5 26 5 5 10 24 12 42 1 17 2 32 3 32 0 0 68 -9 150 -19z m-1860 -146 c20 -41
41 -75 46 -75 5 0 9 -5 9 -10 0 -14 57 -69 106 -103 107 -72 257 -91 386 -48
36 12 72 29 78 37 7 8 19 14 27 14 9 0 -3 -20 -30 -53 -54 -62 -188 -261 -206
-304 -8 -21 -18 -29 -29 -27 -25 7 -79 -31 -98 -67 -18 -36 -14 -107 7 -120 9
-5 4 -28 -20 -94 -18 -47 -30 -89 -27 -93 12 -11 196 -59 201 -52 2 4 16 40
31 81 55 153 156 337 267 485 l61 81 68 -76 c38 -42 73 -77 78 -79 5 -2 -1
-24 -12 -50 -20 -45 -26 -112 -11 -135 4 -7 8 -17 9 -24 4 -25 41 -63 88 -89
50 -27 132 -40 152 -24 7 7 15 -6 24 -40 8 -28 16 -50 20 -50 3 0 7 -10 7 -22
1 -13 7 -24 13 -26 5 -2 10 -17 10 -32 0 -16 5 -32 10 -35 6 -3 10 -17 10 -31
0 -14 4 -23 8 -20 4 2 9 -5 9 -16 1 -12 15 -55 32 -97 16 -42 43 -112 60 -156
34 -89 36 -80 -35 -130 -69 -49 -149 -157 -169 -231 -17 -62 -27 -194 -14
-194 4 0 10 -24 14 -52 4 -29 15 -66 26 -83 10 -16 23 -40 28 -52 6 -12 19
-27 31 -33 20 -11 28 -50 10 -50 -5 0 -17 -15 -26 -32 -9 -18 -23 -40 -31 -48
-8 -8 -24 -30 -37 -48 l-23 -32 -22 87 c-39 153 -48 164 -153 193 -27 7 -48
17 -48 22 0 5 -4 7 -9 3 -21 -13 -56 16 -58 48 -4 50 -24 78 -71 98 -48 21
-84 17 -116 -13 -11 -10 -25 -18 -30 -17 -6 0 -42 19 -80 42 -66 40 -69 44
-70 82 -2 49 -36 107 -73 124 -15 7 -36 17 -45 22 -10 5 -20 5 -23 -2 -4 -6
-17 -9 -28 -7 -12 1 -28 -1 -35 -6 -9 -5 -34 14 -77 58 -212 216 -363 490
-436 790 -11 42 -10 50 4 58 10 5 24 22 32 38 14 26 13 33 -1 70 -13 32 -23
42 -46 47 -16 3 -31 11 -33 17 -12 35 -21 278 -15 376 5 63 10 141 12 172 2
31 6 59 9 62 3 3 49 12 103 20 54 8 101 17 104 20 9 10 10 8 47 -69z m1330 55
c-3 -6 1 -13 9 -16 8 -3 18 -13 21 -23 5 -18 66 -47 117 -57 58 -10 78 -11 78
-4 0 4 12 11 28 15 15 3 34 13 43 21 12 11 23 12 43 5 14 -6 26 -15 26 -21 0
-5 7 -10 15 -10 8 0 24 -9 35 -20 11 -11 23 -21 28 -21 19 -4 39 -14 65 -36
16 -13 35 -23 42 -23 8 0 18 -6 22 -12 11 -17 69 -58 83 -58 6 0 13 -7 16 -15
3 -8 21 -20 39 -27 19 -6 32 -15 29 -19 -2 -4 10 -12 26 -18 17 -5 30 -14 30
-19 0 -6 11 -13 25 -16 26 -7 34 -33 15 -52 -10 -10 -30 -137 -26 -169 2 -11
7 -42 11 -70 4 -27 7 -52 6 -54 -2 -2 3 -7 10 -11 6 -5 17 -24 24 -44 18 -50
73 -120 117 -148 21 -13 38 -26 38 -29 0 -3 19 -14 43 -24 23 -9 51 -22 63
-27 52 -24 217 -26 254 -3 9 6 11 4 5 -4 -4 -7 4 -5 19 4 14 10 26 14 26 10 0
-3 13 3 29 14 27 20 29 20 48 3 10 -9 37 -48 61 -87 23 -38 55 -85 72 -103 16
-18 30 -38 30 -43 0 -15 49 -89 60 -89 5 0 7 -6 5 -12 -3 -7 10 -29 27 -48 18
-20 44 -57 58 -83 14 -26 31 -47 37 -47 17 0 16 -10 -1 -29 -33 -38 -47 -179
-21 -201 8 -7 15 -16 15 -21 0 -28 119 -107 141 -94 5 3 17 1 27 -4 11 -6 23
-6 28 -1 5 4 23 10 39 12 17 1 32 9 35 16 3 8 24 -12 52 -51 26 -35 77 -96
114 -136 37 -39 64 -74 62 -77 -13 -13 -366 -74 -628 -108 -97 -13 -407 -43
-475 -45 -11 -1 -116 -4 -232 -7 -188 -6 -213 -4 -213 9 0 9 7 49 16 89 23
108 44 309 44 423 0 205 -45 467 -111 649 -16 45 -25 84 -21 90 24 32 5 110
-36 148 -27 26 -132 63 -142 50 -3 -4 -14 -8 -24 -10 -56 -10 -110 -87 -108
-153 2 -55 49 -129 82 -129 35 0 130 -368 130 -508 l0 -33 -25 27 c-28 30
-143 104 -162 104 -7 0 -34 7 -59 16 -54 18 -193 19 -211 1 -11 -12 -23 -8
-23 8 0 8 -4 15 -10 15 -5 0 -10 9 -10 20 0 11 -9 39 -19 63 -11 23 -27 68
-37 100 -10 31 -21 57 -26 57 -4 0 -8 16 -8 35 0 19 -4 35 -10 35 -5 0 -10 11
-10 25 0 14 -4 25 -10 25 -5 0 -10 13 -10 29 0 17 -4 33 -10 36 -5 3 -10 15
-10 26 0 10 -4 19 -10 19 -5 0 -10 11 -10 24 0 14 -4 28 -10 31 -5 3 -10 15
-10 26 0 10 -4 19 -10 19 -18 0 -11 17 23 55 42 48 55 96 44 165 -4 30 -11 57
-15 60 -4 3 -15 17 -24 31 -20 32 -87 65 -145 74 -32 4 -55 1 -90 -15 l-47
-21 -77 78 c-76 76 -77 77 -61 101 44 67 286 256 417 326 56 29 59 30 50 16z
m1803 -70 c258 -33 283 -37 236 -39 -60 -2 -122 -108 -95 -160 6 -10 8 -21 6
-25 -3 -3 -2 -4 1 -2 3 3 16 -6 28 -18 11 -13 27 -21 35 -18 9 3 11 0 6 -8 -6
-9 -4 -12 7 -8 8 4 21 2 28 -2 28 -17 93 29 117 81 23 54 -2 120 -56 144 l-36
16 55 -7 c30 -3 80 -8 110 -10 74 -6 287 -42 358 -60 249 -63 480 -173 626
-297 39 -33 39 -34 23 -58 -20 -28 -22 -113 -4 -149 27 -53 140 -105 173 -79
11 9 15 3 44 -78 38 -107 88 -399 114 -673 16 -162 25 -385 16 -385 -3 0 -18
-8 -33 -18 -15 -9 -27 -15 -27 -12 0 3 -10 0 -22 -7 -13 -7 -25 -13 -28 -13
-3 0 -15 -6 -27 -13 -13 -7 -23 -10 -23 -7 0 4 -14 -4 -32 -16 -17 -13 -28
-16 -23 -8 5 7 -7 2 -27 -13 -33 -26 -38 -27 -52 -12 -9 9 -14 20 -11 25 4 5
2 9 -2 9 -5 0 -22 18 -39 40 -16 22 -35 40 -41 40 -7 0 -13 5 -13 10 0 6 -7
10 -15 10 -8 0 -15 4 -15 9 0 5 -13 14 -30 20 -16 5 -30 15 -30 22 0 7 -3 9
-7 6 -3 -4 -13 -1 -21 6 -11 8 -14 8 -9 0 5 -7 -4 -6 -23 3 -47 24 -166 32
-199 15 -9 -5 -32 -12 -51 -15 -49 -9 -50 -10 -96 -34 -23 -12 -55 -35 -72
-52 -17 -16 -33 -30 -36 -30 -4 0 -24 11 -47 25 -22 14 -44 23 -49 20 -11 -7
-109 104 -185 210 -160 224 -299 550 -385 903 -18 72 -37 132 -42 132 -6 0
-36 -6 -67 -14 -102 -25 -136 -29 -124 -14 17 21 24 141 12 199 -6 29 -20 68
-30 86 -11 19 -19 39 -19 46 0 7 -16 30 -35 52 -19 22 -35 44 -35 48 0 5 -4 6
-8 3 -5 -3 -15 4 -22 15 -8 10 -20 19 -26 19 -17 0 -37 27 -25 34 5 4 15 23
21 44 14 44 34 92 38 92 2 0 110 -14 240 -30z m-518 -118 c0 9 3 9 11 1 6 -6
18 -9 27 -6 8 4 13 2 10 -3 -3 -5 10 -10 30 -11 19 -1 38 -7 42 -13 4 -7 11
-12 16 -13 21 -2 84 -31 84 -38 0 -5 13 -22 30 -39 16 -16 26 -30 22 -30 -4 0
-2 -4 4 -8 21 -15 58 -86 69 -136 25 -109 3 -220 -60 -306 -33 -45 -125 -129
-125 -114 0 3 -6 1 -14 -5 -8 -7 -23 -14 -35 -16 -12 -3 -31 -8 -43 -11 -13
-3 -29 -6 -35 -6 -7 -1 -13 -5 -13 -9 0 -4 -10 -6 -22 -4 -13 2 -52 7 -88 10
-36 3 -66 10 -68 15 -2 5 -22 19 -45 30 -56 27 -94 50 -84 50 4 0 -10 18 -33
41 -22 22 -40 44 -40 49 0 5 -9 29 -20 55 -22 51 -36 210 -20 220 6 3 10 13
10 22 0 42 54 130 106 173 30 25 57 43 58 40 2 -3 13 3 24 13 11 10 26 19 34
21 7 1 19 5 26 9 6 5 16 6 21 2 5 -3 13 0 16 6 4 5 13 8 19 6 7 -3 19 -1 26 3
7 5 24 4 37 -1 16 -6 23 -5 23 3z m-1414 -389 c61 -46 76 -118 38 -183 -52
-88 -199 -78 -234 16 -16 42 -9 115 14 147 37 51 128 62 182 20z m1895 -458
c38 -122 111 -320 139 -374 22 -45 24 -51 12 -51 -5 0 -19 19 -32 43 -23 40
-31 51 -56 80 -11 13 -22 39 -20 48 0 3 -11 17 -26 31 -16 14 -28 32 -28 39 0
8 -9 21 -20 29 -11 8 -20 22 -20 31 0 9 -7 19 -15 23 -8 3 -15 12 -15 21 0 8
-5 15 -12 15 -6 0 -9 3 -5 6 3 4 1 12 -6 19 -7 7 -19 23 -27 35 -8 13 -23 32
-32 42 -10 10 -18 22 -18 26 0 5 -10 19 -22 31 -18 21 -19 25 -5 32 29 17 106
130 113 167 7 34 9 29 36 -78 16 -63 42 -160 59 -215z m-1379 -491 c73 -25
117 -47 112 -55 -2 -4 9 -13 25 -20 16 -7 28 -16 25 -20 -2 -4 9 -19 26 -32
16 -14 30 -30 30 -36 0 -6 5 -11 11 -11 5 0 8 -4 5 -9 -4 -5 -2 -11 3 -13 12
-4 -3 -208 -24 -329 -19 -107 -40 -135 -141 -186 -118 -59 -236 -62 -354 -6
-42 19 -81 48 -75 55 3 3 -6 11 -20 18 -14 8 -28 24 -31 36 -3 12 -12 25 -20
28 -8 3 -14 12 -14 21 0 8 -4 15 -10 15 -5 0 -10 11 -10 25 0 14 -4 25 -8 25
-10 0 -11 4 -15 105 -6 155 71 293 197 355 26 13 104 40 129 44 44 7 124 3
159 -10z m1609 -69 c18 -33 45 -80 60 -105 l28 -45 -22 -12 c-37 -20 -112 2
-148 43 -22 26 -33 107 -18 136 14 29 52 59 61 50 3 -4 21 -34 39 -67z m-3247
-226 c183 -183 425 -340 676 -439 58 -23 108 -45 113 -49 4 -4 -8 -69 -27
-144 -43 -172 -62 -196 -131 -167 -31 13 -99 35 -111 35 -6 0 -18 5 -25 12 -8
6 -18 12 -24 13 -33 4 -62 15 -77 28 -10 8 -18 12 -18 9 0 -3 -15 0 -34 8 -18
8 -36 11 -40 8 -3 -4 -6 -2 -6 4 0 11 -43 27 -72 26 -38 -1 -67 43 -123 186
-52 132 -140 386 -163 471 -6 19 -13 43 -17 53 -13 31 7 18 79 -54z m4256 -62
c33 -6 80 -28 80 -39 0 -4 3 -7 8 -6 4 0 23 -6 42 -15 19 -9 31 -16 26 -17 -5
0 7 -15 27 -33 30 -29 74 -98 84 -132 37 -133 38 -188 4 -255 -10 -19 -21 -47
-24 -61 -7 -26 -10 -24 -104 70 -78 76 -119 107 -198 150 -96 53 -279 165
-318 195 -18 14 -18 15 0 40 10 14 22 26 27 26 5 0 24 11 43 26 18 14 33 22
33 18 0 -3 7 -1 15 6 36 30 158 43 255 27z m612 -264 c7 -372 3 -786 -7 -789
-5 -2 -43 43 -82 99 -40 56 -113 153 -163 216 -68 84 -88 116 -78 122 7 5 13
12 13 16 1 4 6 17 12 28 6 11 21 56 33 100 23 83 22 183 -1 227 -15 27 12 52
66 62 6 1 20 8 33 14 12 7 22 9 22 5 0 -4 4 -2 8 4 4 7 18 14 30 16 12 2 28 9
34 15 7 7 20 12 30 12 10 0 21 7 24 15 16 41 23 -1 26 -162z m-3103 -238 c-38
-115 -43 -125 -54 -105 -7 12 -27 28 -46 34 -41 14 -118 14 -127 -1 -4 -5 -18
-16 -30 -22 -30 -16 -52 -68 -52 -121 0 -66 83 -140 148 -131 6 1 12 -1 12 -4
0 -20 -172 -319 -190 -330 -19 -11 -227 369 -294 537 l-26 68 52 72 c29 40 56
78 61 83 4 6 14 19 21 30 13 19 15 18 67 -9 109 -57 259 -77 349 -46 52 18
102 43 124 62 11 10 21 16 23 14 3 -2 -15 -61 -38 -131z m1795 43 c9 -35 8
-41 -17 -68 -41 -47 -117 -34 -137 23 -6 18 -11 34 -11 37 0 6 96 27 132 29
20 1 28 -5 33 -21z m-224 -48 c0 -34 27 -83 41 -74 5 3 8 2 7 -3 -2 -4 1 -9 6
-10 5 -1 12 -5 15 -10 22 -30 107 -37 139 -10 20 16 -48 -90 -117 -183 -71
-96 -228 -258 -311 -321 -36 -27 -68 -49 -72 -49 -5 0 -8 146 -8 325 0 253 3
325 13 326 6 0 62 9 122 19 161 26 165 26 165 -10z m-1671 -147 c29 -35 29
-37 15 -71 -20 -48 -30 -59 -62 -65 -28 -5 -85 20 -76 35 3 4 0 8 -5 8 -14 0
-14 65 -1 91 6 10 17 19 25 19 8 0 15 5 15 10 0 6 13 10 29 10 22 0 38 -10 60
-37z m-1402 -19 c4 3 15 -1 25 -11 10 -9 18 -13 18 -8 0 4 11 0 25 -9 14 -9
25 -14 25 -12 0 3 17 -2 37 -11 21 -8 48 -17 62 -20 13 -2 38 -11 55 -21 17
-9 38 -17 46 -17 8 -1 26 -6 40 -12 14 -6 33 -14 43 -17 12 -4 17 -14 15 -34
-1 -15 2 -33 6 -41 11 -16 -103 -303 -118 -298 -38 11 -286 403 -329 520 -6
16 -5 16 19 1 13 -9 27 -14 31 -10z"/>
<path d="M1411 4580 c-41 -42 -42 -81 -1 -122 25 -25 36 -29 66 -25 106 14
107 159 2 174 -29 3 -40 -1 -67 -27z"/>
<path d="M999 4465 c-110 -72 -76 -241 53 -260 120 -18 209 120 143 222 -41
61 -133 80 -196 38z m114 -46 c68 -31 57 -138 -14 -153 -45 -9 -73 2 -92 34
-48 81 21 158 106 119z"/>
<path d="M1573 4380 c-41 -25 -62 -85 -44 -129 18 -42 44 -62 92 -71 38 -7 43
-5 80 30 33 32 39 43 39 79 0 36 -6 49 -34 77 -40 40 -83 45 -133 14z"/>
<path d="M1261 2092 c-39 -25 -40 -27 -36 -76 4 -55 29 -84 75 -87 42 -2 51 1
81 32 24 25 28 36 24 67 -5 38 -22 56 -76 79 -24 10 -33 8 -68 -15z"/>
<path d="M2166 2877 c-22 -18 -29 -33 -32 -66 -3 -51 3 -71 22 -71 8 0 13 -6
12 -12 -2 -7 3 -12 10 -10 6 1 12 -2 12 -6 0 -4 15 -6 34 -4 60 7 109 87 84
137 -16 31 -46 56 -53 45 -4 -7 -13 -7 -25 0 -26 14 -31 13 -64 -13z"/>
<path d="M3040 1822 c-14 -2 -27 -7 -30 -11 -3 -3 -14 -11 -24 -17 -36 -19
-57 -59 -62 -115 -4 -51 -2 -57 28 -88 65 -66 129 -81 191 -42 48 29 70 73 71
135 0 36 -5 52 -19 62 -10 8 -15 14 -11 14 4 0 1 7 -7 15 -22 22 -108 52 -137
47z m69 -77 c33 -17 45 -59 30 -104 -24 -70 -148 -60 -150 12 -2 47 1 60 18
79 13 15 26 20 66 27 4 0 21 -6 36 -14z"/>
<path d="M3248 1379 c-48 -51 -34 -109 34 -139 39 -17 42 -17 71 -1 32 18 67
93 47 99 -5 2 -8 8 -4 13 3 5 -2 12 -10 15 -9 3 -14 10 -11 14 6 10 -50 30
-79 29 -12 0 -33 -14 -48 -30z"/>
<path d="M4448 3240 c-15 -4 -29 -6 -32 -3 -2 3 -17 -14 -33 -38 -23 -35 -28
-53 -28 -104 0 -45 5 -66 18 -79 9 -10 17 -21 17 -25 0 -15 79 -39 117 -35 66
7 72 8 67 15 -2 4 5 9 16 12 22 6 60 84 60 122 0 55 -47 121 -91 130 -66 12
-85 13 -111 5z m107 -86 c61 -66 -9 -158 -88 -118 -39 20 -47 31 -47 67 0 36
43 77 82 77 18 0 38 -10 53 -26z"/>
<path d="M4308 2690 c-15 -4 -29 -6 -32 -3 -3 3 -9 -3 -13 -13 -4 -10 -13 -25
-20 -32 -16 -16 -17 -41 -3 -77 15 -39 31 -51 77 -58 37 -6 45 -4 71 23 16 16
32 41 35 55 6 33 -19 86 -44 92 -11 3 -19 9 -19 14 0 11 -15 10 -52 -1z"/>
<path d="M5292 2237 c-9 -10 -16 -22 -16 -26 1 -6 1 -9 -9 -41 -6 -20 32 -88
53 -95 49 -16 120 19 126 62 1 10 5 27 9 39 5 15 -2 29 -24 53 -26 28 -36 32
-76 30 -30 -2 -51 -9 -63 -22z"/>
<path d="M4707 2135 c-14 -7 -27 -11 -30 -9 -2 2 -16 -9 -31 -25 -37 -39 -47
-125 -18 -158 25 -30 84 -54 113 -47 13 3 30 6 36 6 20 2 40 29 56 79 25 73 5
120 -61 149 -34 16 -44 16 -65 5z"/>
</g>
</svg>
