<svg xmlns="http://www.w3.org/2000/svg" viewBox="0 0 92.031 44">
  <defs>
    <style>
      .skin-path-2 {
        fill: #acacac;
      }
    </style>
  </defs>
  <path class="skin-path skin-path-2" d="M236.3,403.988a0.8,0.8,0,0,1-.6-0.315,2.192,2.192,0,0,1-.233-2.1c1.949-4.674,4.32-10.42,6.593-16.012-2.6,5.539-5.295,11.305-7.481,16.022-0.31.67-.9,0.841-1.343,0.39a2.144,2.144,0,0,1-.319-2.087l7.42-20.157c-3.373,7.221-7.2,15.627-10.1,22.107-0.312.695-.921,0.871-1.368,0.4a2.161,2.161,0,0,1-.277-2.14l0.164-.4-0.385.8a0.786,0.786,0,0,1-1.363.338,2.174,2.174,0,0,1-.262-2.127l0.137-.331c-0.894,1.809-1.485,2.956-1.891,3.689l-0.39.762-0.031-.039a0.956,0.956,0,0,1-.595.606,0.754,0.754,0,0,1-.745-0.3,1.873,1.873,0,0,1-.388-1.052,2.236,2.236,0,0,1,.211-1.169l0.337-.658c-0.5-.635-0.6-1.4.175-3.889-1.129,2.187-1.311,2.229-1.59,2.293a0.761,0.761,0,0,1-.751-0.3c-0.673-.8-1.059-1.254,2.151-10.233-1.209,2.49-1.913,3.885-2.35,4.671-0.064.14-.126,0.277-0.189,0.418l-0.031-.035a1.008,1.008,0,0,1-.636.676,0.752,0.752,0,0,1-.741-0.3,2.2,2.2,0,0,1-.211-2.148c0.373-.824.767-1.7,1.175-2.6a0.935,0.935,0,0,1-.074-0.08,1.967,1.967,0,0,1-.4-1.241,2.375,2.375,0,0,1,0-1.347l2.606-8.592c-0.532.891-.716,0.936-0.911,0.985a0.782,0.782,0,0,1-.776-0.3c-0.354-.419-0.576-0.68-0.31-2.255a0.7,0.7,0,0,1-1.02.03,2.07,2.07,0,0,1-.42-1.964c0.362-1.33.791-2.914,1.219-4.508l-0.106-1.179,0.6-1.244-0.6,1.244-0.753-1.015c0.166-.318,2.057-4.275,3.21-6.694a1.027,1.027,0,0,1,.656-0.609,0.744,0.744,0,0,1,.738.3c0.5,0.6.625,0.743-.241,4.119a0.531,0.531,0,0,1,.255-0.111,0.871,0.871,0,0,1,.933.6,2.319,2.319,0,0,1,.117,1.572c-0.114.407-.229,0.819-0.344,1.233,0.74-1.619,1.514-3.337,2.255-5,0.3-.665.868-0.862,1.313-0.455a2.087,2.087,0,0,1,.4,2.018l-2.86,9.43c1.807-3.78,3.748-7.851,5.365-11.25a1.034,1.034,0,0,1,.656-0.61,0.758,0.758,0,0,1,.738.3,1.679,1.679,0,0,1,.329.6q0.271-.575.536-1.131c0.318-.671.917-0.829,1.356-0.357a2.163,2.163,0,0,1,.283,2.113c-2.579,6.48-5.253,13.375-7.453,19.241,1.954-4.136,3.948-8.389,5.348-11.375,3.655-7.794,3.655-7.794,4.1-7.9a0.745,0.745,0,0,1,.741.3c0.427,0.5.632,0.747,0.14,2.28v0a0.02,0.02,0,0,1,0,.008c-0.455,1.414-1.5,3.921-3.5,8.727-0.363.871-.761,1.828-1.182,2.842,2.163-4.6,4.343-9.269,6.15-13.162a1.039,1.039,0,0,1,.657-0.623,0.71,0.71,0,0,1,.659.207c0.021-.047.044-0.094,0.065-0.14a1.034,1.034,0,0,1,.656-0.616,0.74,0.74,0,0,1,.741.3c0.673,0.8.418,1.748-.088,3.112l1.966-4.1a0.785,0.785,0,0,1,1.362-.339,1.914,1.914,0,0,1,.423,1.218c1.079-1.86,1.355-1.928,1.541-1.974a0.836,0.836,0,0,1,.8.31,2.189,2.189,0,0,1,.262,2.025l-4.813,13.074c6.7-14.105,7.095-14.2,7.479-14.287a0.763,0.763,0,0,1,.757.3c0.594,0.7.89,1.053-1.063,6.381,2.263-4.7,2.412-4.736,2.792-4.823a0.759,0.759,0,0,1,.746.3,2.388,2.388,0,0,1,.168.221c0.992-1.832,1.207-1.883,1.481-1.946a0.784,0.784,0,0,1,.766.3,1.765,1.765,0,0,1,.372,1.552,1.227,1.227,0,0,1,.491.61,2.332,2.332,0,0,1,.011,1.685c-0.846,2.112-1.78,4.457-2.75,6.907,5.961-12.5,6.671-12.674,7-12.757a0.731,0.731,0,0,1,.156-0.018l0.037-.09,0.028,0.028a1.115,1.115,0,0,1,.66-0.726,0.751,0.751,0,0,1,.743.3,1.958,1.958,0,0,1,.4,1.22c0.732-1.36.986-1.512,1.3-1.589a0.808,0.808,0,0,1,.787.305,2.2,2.2,0,0,1,.23,2.106l-0.735,1.746c1.154-2.05,1.432-2.118,1.654-2.172a0.828,0.828,0,0,1,.8.308,2.184,2.184,0,0,1,.267,2.011l-5.829,16.231q0.1-.218.208-0.434c2.331-4.869,4.665-9.736,6.419-13.382,0.877-1.825,1.61-3.344,2.125-4.4,0.264-.544.485-1,0.681-1.361,0.08-.172.121-0.262,0.121-0.262l0.017,0.018c0.491-.831.842-0.99,1.384-0.351a1.943,1.943,0,0,1,.4,1.2,1.081,1.081,0,0,1,.658-0.528,0.8,0.8,0,0,1,.78.3,2.079,2.079,0,0,1,.42,1.848,0.741,0.741,0,0,1,.289.111c1.565-3.163,1.7-3.2,2.013-3.264a0.748,0.748,0,0,1,.74.3c0.66,0.78.988,1.17-1.979,8.974,3.419-7.57,3.468-7.582,3.957-7.7a0.751,0.751,0,0,1,.754.3c0.6,0.705.61,1.436-.126,3.6l2.381-4.982a0.786,0.786,0,0,1,1.354-.352,2.161,2.161,0,0,1,.283,2.109c-1.468,3.715-3.124,7.91-4.79,12.139,2.122-4.441,4.247-8.891,6.115-12.807a0.787,0.787,0,0,1,1.357-.349,2.163,2.163,0,0,1,.278,2.114l-0.922,2.3c2.4-4.712,2.748-4.8,3.008-4.858a0.794,0.794,0,0,1,.776.3,2.187,2.187,0,0,1,.255,2.046c-2.032,5.324-4.445,11.674-6.715,17.687,0.044-.094.087-0.188,0.13-0.282,8.006-17.384,8.089-17.4,8.735-17.557a0.758,0.758,0,0,1,.737.276l0.142-.295c0.33-.688.952-0.825,1.39-0.307a2.063,2.063,0,0,1,.316.447,0.548,0.548,0,0,1,.372-0.288,0.922,0.922,0,0,1,.982.717,2.326,2.326,0,0,1-.018,1.7q-0.609,1.413-1.221,2.847c2.617-5.2,2.983-5.285,3.253-5.35a0.8,0.8,0,0,1,.779.305,2.185,2.185,0,0,1,.266,2.013l-7.123,19.735c0.688-1.409,1.455-2.977,2.312-4.721L296.6,378.7c2.68-5.83,5.412-11.878,7.622-16.836a1.065,1.065,0,0,1,.658-0.646,0.736,0.736,0,0,1,.753.3,1.974,1.974,0,0,1,.363.8c0.009,0.011.02,0.022,0.029,0.034,0.6,0.7.822,0.971-.893,5.515,0.983-2.115,1.923-4.144,2.784-6.008a1.042,1.042,0,0,1,.657-0.626,0.745,0.745,0,0,1,.744.3c0.692,0.818.979,1.159-2.4,10.2,1.884-4.056,2.066-4.1,2.492-4.205a0.78,0.78,0,0,1,.771.3,2.184,2.184,0,0,1,.265,2.017l-3.363,9.256c0.757-1.626,1.48-3.186,2.131-4.6,0.317-.685.924-0.849,1.368-0.368a2.173,2.173,0,0,1,.265,2.14l-0.967,2.3c0.022,0.022.043,0.045,0.064,0.069,0.552,0.655.883,1.047-1.332,8.333a0.793,0.793,0,0,1,.331-0.177,0.746,0.746,0,0,1,.749.3c0.476,0.565.488,0.58-.123,6.192l0.077-.022a0.757,0.757,0,0,1,.76.3c0.542,0.641.5,1.173,0.077,3.742a2.32,2.32,0,0,1-.071,1.708l-0.419.872a1.027,1.027,0,0,1-.655.606,0.751,0.751,0,0,1-.737-0.3,2.077,2.077,0,0,1-.14-0.188,0.742,0.742,0,0,1-1.077-.14,2.069,2.069,0,0,1-.383-1.511c0.121-1.107.261-2.378,0.4-3.641-3.722,8.049-3.983,8.112-4.4,8.214a0.765,0.765,0,0,1-.759-0.3,2.182,2.182,0,0,1-.283-1.968c0.967-2.9,1.953-5.915,2.855-8.727l-4.2,8.749a0.786,0.786,0,0,1-1.365.336,1.541,1.541,0,0,1-.315-0.574l-0.031.007a0.767,0.767,0,0,1-.755-0.3,2.19,2.19,0,0,1-.265-2.018l1.97-5.42c-3.7,8.05-4.48,9.2-5.152,9.368a0.847,0.847,0,0,1-.809-0.313,2.188,2.188,0,0,1-.242-2.076c1.581-3.933,3.453-8.641,5.31-13.363-6.649,14.006-7.07,14.107-7.453,14.2a0.774,0.774,0,0,1-.76-0.3,2.193,2.193,0,0,1-.235-2.093c0.771-1.867,1.615-3.914,2.493-6.051-2.031,4.233-3.484,7.26-3.533,7.361a1.026,1.026,0,0,1-.643.6c-1.761,3.245-2.134,3.337-2.352,3.391a0.852,0.852,0,0,1-.813-0.312,2.185,2.185,0,0,1-.266-2.013L292.4,381.7c-2.98,6.36-6.262,13.494-8.8,19.081a1.051,1.051,0,0,1-.657.635,0.745,0.745,0,0,1-.748-0.3c-0.611-.722-0.605-1.667.141-3.992-0.863,1.812-1.7,3.567-2.487,5.223a1.026,1.026,0,0,1-.654.61,0.748,0.748,0,0,1-.738-0.3,1.928,1.928,0,0,1-.185-2.163l-0.013-.016c0.031-.065.063-0.134,0.1-0.2,0.014-.038.03-0.076,0.045-0.114a0.862,0.862,0,0,1-.094-0.059c-1.6,3.23-1.82,3.282-2.184,3.367a0.777,0.777,0,0,1-.767-0.3c-0.731-.865-0.371-1.895.283-3.765,0.385-1.1.948-2.654,1.632-4.512,1.081-2.938,2.559-6.9,4.4-11.791-2.98,6.372-6.143,13.237-8.648,18.731-0.313.685-.915,0.857-1.361,0.387a2.16,2.16,0,0,1-.287-2.124l2.471-6.168-1,2.071c-3.117,6.476-3.117,6.476-3.565,6.575a0.741,0.741,0,0,1-.736-0.3c-0.735-.866-0.411-1.716.371-3.77,0.413-1.085,1.009-2.628,1.728-4.475,0.462-1.188.975-2.5,1.522-3.9-0.6,1.255-1.168,2.434-1.682,3.5-0.825,1.716-1.514,3.144-2,4.142-0.261.538-.481,0.99-0.678,1.344-0.033.078-.051,0.121-0.054,0.127l-0.011-.012c-0.5.854-.857,1.053-1.413,0.4a2.013,2.013,0,0,1-.394-1.352c-1.933,3.828-2.582,4.571-3.07,4.691a0.809,0.809,0,0,1-.821-0.317,2.192,2.192,0,0,1-.231-2.1c2-4.752,4.416-10.591,6.74-16.287-2.5,5.242-5.08,10.679-7.28,15.321a0.8,0.8,0,0,1-1.227.475c-1.449,3.018-1.557,3.042-1.864,3.113a0.753,0.753,0,0,1-.742-0.3c-0.6-.713-0.57-1.438.08-3.1a0.891,0.891,0,0,1-.39-0.254c-0.687,1.086-.908,1.141-1.064,1.18a0.764,0.764,0,0,1-.564-0.1l-0.571,1.2a0.788,0.788,0,0,1-1.337.369,2.143,2.143,0,0,1-.322-2.071l7.323-20.389c-2.694,5.755-5.994,12.955-9.669,21.113a1.353,1.353,0,0,1-.771.916,0.742,0.742,0,0,1-.763-0.293c-0.44-.52-0.691-0.817-0.027-2.937a1.8,1.8,0,0,1-.951.926,0.844,0.844,0,0,1-.807-0.312,2.069,2.069,0,0,1-.381-1.506q-0.96,1.9-2,3.948a0.948,0.948,0,0,1-.729.585l-0.321.72a1.061,1.061,0,0,1-.658.644,0.746,0.746,0,0,1-.752-0.3c-0.587-.694-0.857-1.013.938-6.07-3.167,6.5-3.514,6.586-3.95,6.69a0.806,0.806,0,0,1-.783-0.307,2.131,2.131,0,0,1-.347-1.723,1.011,1.011,0,0,1-.214-0.193,2.288,2.288,0,0,1-.244-0.343c-0.49.994-.815,1.612-1.045,2a0.016,0.016,0,0,1,0,.006h0a1.016,1.016,0,0,1-.683.69A0.627,0.627,0,0,1,236.3,403.988Z" transform="translate(-219 -360)"/>
</svg>
