<svg xmlns="http://www.w3.org/2000/svg" viewBox="0 0 105 42.688" preserveAspectRatio="none">
  <defs>
    <style>
      .skin-path-1 {
        fill: #acacac;
      }
    </style>
  </defs>
  <path class="skin-path skin-path-1" d="M419.571,402.679a0.805,0.805,0,0,1-.194-0.024,1.156,1.156,0,0,1-.722-0.652c-0.348-.7-0.459-0.93.516-2.771a0.786,0.786,0,0,1-.826.3,1.308,1.308,0,0,1-.855-1,2.114,2.114,0,0,1,.178-1.546c0.106-.182.212-0.368,0.319-0.555-1.351,1.392-2.826,2.938-4.231,4.436a0.9,0.9,0,0,1-1.5-.194,2.078,2.078,0,0,1,0-2.12l3.983-6.206c-2.9,2.878-6.118,6.075-8.76,8.707a0.876,0.876,0,0,1-.835.265,1.156,1.156,0,0,1-.722-0.648,2.139,2.139,0,0,1-.205-0.619l-1.616,1.617a0.918,0.918,0,0,1-1.527-.316,2.055,2.055,0,0,1,.157-2.166c3.067-3.693,6.732-8.194,9.978-12.29-2.867,2.878-5.777,5.822-7.834,7.9-5.5,5.56-5.493,5.561-5.99,5.442a1.157,1.157,0,0,1-.727-0.649c-0.343-.692-0.512-1.031.357-2.253l0-.009,0.03-.027c0.849-1.183,2.652-3.181,6.159-7.068l1.238-1.373c-3.747,3.779-7.528,7.62-10.673,10.833a0.881,0.881,0,0,1-.84.277,1.061,1.061,0,0,1-.606-0.442,0.828,0.828,0,0,1-.081.024l-0.541.545a0.874,0.874,0,0,1-.838.271,1.154,1.154,0,0,1-.726-0.648,1.976,1.976,0,0,1,.23-2.2l-3.563,3.52a0.925,0.925,0,0,1-1.539-.355,1.991,1.991,0,0,1-.212-0.771c-2.32,1.963-2.73,1.874-3.076,1.8a1.242,1.242,0,0,1-.813-0.709,2.051,2.051,0,0,1,.2-2.109l9.055-10.732c-12.959,12.933-13.375,12.841-13.963,12.7a1.2,1.2,0,0,1-.749-0.664c-0.409-.825-0.671-1.352,1.588-4.339-3.883,3.8-4.083,3.747-4.5,3.646a1.176,1.176,0,0,1-.733-0.655c-0.014-.028-0.028-0.056-0.041-0.084-1.991,1.763-2.46,1.876-2.82,1.791a1.244,1.244,0,0,1-.762-0.673,2.381,2.381,0,0,1-.222-0.649,1.4,1.4,0,0,1-.847-1.151,1.971,1.971,0,0,1,.394-1.63q1.04-1.146,2.153-2.378c-8.237,8.039-8.958,7.876-9.525,7.75a0.851,0.851,0,0,1-.133-0.04q-0.163.134-.294,0.231l-0.025.027,0-.006a0.9,0.9,0,0,1-.866.32,1.173,1.173,0,0,1-.731-0.653,2.053,2.053,0,0,1-.2-0.946c-1.709,1.568-2.264,1.786-2.7,1.683a1.289,1.289,0,0,1-.788-0.69,2.127,2.127,0,0,1-.023-1.759c-1.476,1.143-1.793,1.071-2.027,1.018a1.236,1.236,0,0,1-.8-0.7,2.055,2.055,0,0,1,.191-2.1l12.363-14.873c-4.721,4.674-9.424,9.326-12.978,12.829-3.146,3.1-4.749,4.681-5.626,5.472l-0.448.454-0.024-.047a0.8,0.8,0,0,1-.821.32,1.39,1.39,0,0,1-.894-1.2,2.042,2.042,0,0,1-.028-0.3c-0.975.779-1.4,0.9-1.727,0.829a1.283,1.283,0,0,1-.779-0.686,2.347,2.347,0,0,1-.278-0.891,0.623,0.623,0,0,1-.323-0.013,1.023,1.023,0,0,1-.493-0.3c-2.837,2.712-3.011,2.669-3.351,2.587a1.162,1.162,0,0,1-.726-0.651c-0.474-.953-0.777-1.567,3.107-6.368-5.746,6.03-5.838,6.013-6.4,5.886a1.171,1.171,0,0,1-.744-0.658c-0.332-.669-0.559-1.126.516-2.767-1.672,1.658-3.171,3.146-4.417,4.383a0.923,0.923,0,0,1-1.535-.343,2.043,2.043,0,0,1,.2-2.175c2.9-3.28,6.143-6.941,9.432-10.664-4.886,4.847-9.425,9.356-12.477,12.391a0.924,0.924,0,0,1-1.537-.344,2.042,2.042,0,0,1,.2-2.177l0.653-.731c-1.739,1.466-2.038,1.4-2.344,1.327a1.262,1.262,0,0,1-.773-0.68,2.052,2.052,0,0,1,.2-2.117c3.7-4.32,8.018-9.381,12.207-14.315-9.251,9.5-9.407,9.459-10.054,9.306a1.193,1.193,0,0,1-.747-0.662,2.058,2.058,0,0,1-.2-0.947,1.486,1.486,0,0,1-.26-0.373c-0.321-.647-0.544-1.1.435-2.581a1.817,1.817,0,0,1-.265-0.681,1.982,1.982,0,0,1,.381-1.622c0.72-.814,1.446-1.64,2.173-2.47-1.238,1.031-1.469.976-1.693,0.925a1.208,1.208,0,0,1-.756-0.667,2.086,2.086,0,0,1,.108-1.992l6.223-9.176c-1.984,2.036-4.116,4.256-6.15,6.4a0.883,0.883,0,0,1-.845.293,1.146,1.146,0,0,1-.737-0.651,2.189,2.189,0,0,1,.377-2.483,4.976,4.976,0,0,1,.927-2.374,0.81,0.81,0,0,1-.566.073,1.152,1.152,0,0,1-.729-0.649c-0.448-.9-0.514-1.034,2.248-7.627l-0.441-1.05c0.091-.083.344-0.344,0.623-0.632C325,361.4,325.1,361.3,325.6,361.41a1.153,1.153,0,0,1,.732.65,2.126,2.126,0,0,1,.046,1.709c-0.28.664-.565,1.347-0.845,2.02,3.379-3.4,3.518-3.366,3.972-3.261a1.16,1.16,0,0,1,.732.651,2.094,2.094,0,0,1-.08,1.952q-0.381.6-.768,1.219l3.25-3.211a0.852,0.852,0,0,1,.98-0.21c2.82-2.67,3.161-2.593,3.479-2.522a1.215,1.215,0,0,1,.761.67,2.089,2.089,0,0,1-.108,1.992l-6.373,9.4c3.356-3.394,7.125-7.278,10.021-10.3a0.881,0.881,0,0,1,.843-0.288,1.151,1.151,0,0,1,.735.651c0.318,0.64.575,1.158-.785,3.3,1.682-1.675,3.315-3.3,4.819-4.8a0.872,0.872,0,0,1,.836-0.265,1.157,1.157,0,0,1,.723.649,1.707,1.707,0,0,1,.112,1.532,1.244,1.244,0,0,1,.116.114c2.944-2.853,3.2-2.793,3.643-2.689a1.218,1.218,0,0,1,.755.669c0.612,1.234-.017,2.027-1.4,3.764-0.771.972-1.915,2.373-3.4,4.164-2.177,2.627-5.117,6.131-8.756,10.434,5.979-6.062,12.416-12.693,17.514-18a0.92,0.92,0,0,1,1.549.31,2.042,2.042,0,0,1-.192,2.19l-3.72,4.169,0.937-.924c6.329-6.233,6.329-6.235,6.85-6.107a1.158,1.158,0,0,1,.723.65c0.611,1.232.14,1.783-1.613,3.831-0.913,1.067-2.224,2.578-3.8,4.385l-1.628,1.863,2.91-2.871c3.144-3.1,4.681-4.614,5.5-5.337l0.287-.306,0.023,0.041a0.8,0.8,0,0,1,.841-0.335,1.385,1.385,0,0,1,.893,1.184,2.325,2.325,0,0,1,.031.342c3.183-2.948,4.714-3.96,5.395-3.8a1.285,1.285,0,0,1,.838.73,2.032,2.032,0,0,1-.24,2.159c-4.482,4.785-9.978,10.727-15.214,16.481,5.77-5.741,11.906-11.866,17.059-17.024a0.877,0.877,0,0,1,1.376.093c2.668-2.638,2.8-2.605,3.146-2.521a1.161,1.161,0,0,1,.728.652,1.85,1.85,0,0,1-.032,1.91,1.275,1.275,0,0,1,.251.218c1.509-1.183,1.851-1.108,2.16-1.039a1.1,1.1,0,0,1,.574.35l1.278-1.268a0.919,0.919,0,0,1,1.525.323,2.055,2.055,0,0,1-.158,2.163l-17.544,21.1c5.946-6,13.5-13.8,22.046-22.809a1.1,1.1,0,0,1,1.146-.559,1.172,1.172,0,0,1,.7.642,1.613,1.613,0,0,1,.009,1.767,2.5,2.5,0,0,1,1.782-.794,1.246,1.246,0,0,1,.816.712,2.111,2.111,0,0,1,.168,1.29c2.392-2.238,3.907-3.64,3.944-3.674a0.849,0.849,0,0,1,.893-0.207l0.693-.736a0.878,0.878,0,0,1,.846-0.3,1.148,1.148,0,0,1,.74.651c0.379,0.764.618,1.246-1.091,3.639,4.462-4.245,5.416-4.679,5.957-4.556a1.3,1.3,0,0,1,.785.69,1.994,1.994,0,0,1,.2.782,1.235,1.235,0,0,1,.6.607c0.051,0.1.1,0.2,0.132,0.3,2.664-2.577,2.848-2.536,3.223-2.444a1.172,1.172,0,0,1,.732.653,2.032,2.032,0,0,1-.238,2.156c-4.7,5.044-10.535,11.383-15.982,17.395,6.154-6.189,12.854-13,18.363-18.645a0.918,0.918,0,0,1,1.536.3,2.053,2.053,0,0,1-.162,2.176l-17.744,21.031c7.406-7.487,16.209-16.667,22.834-23.7a0.92,0.92,0,0,1,1.557.3,2.115,2.115,0,0,1,.061,1.789,0.926,0.926,0,0,1,1.489.4,2.053,2.053,0,0,1-.169,2.125c0.093-.075.177-0.14,0.253-0.2,0.055-.051.085-0.08,0.09-0.083l0.006,0.013a0.8,0.8,0,0,1,.787-0.251,1.169,1.169,0,0,1,.732.653,2.114,2.114,0,0,1,.181,1.2,1.7,1.7,0,0,1-.486,1.019l-1.583,1.462a1.858,1.858,0,0,1-.07.19c0.385,0.873.331,1.68-1.659,4.345a0.636,0.636,0,0,1,.268.023,1.179,1.179,0,0,1,.735.656c0.518,1.042.8,1.618-3.625,7.532,2.436-2.395,3.746-3.635,4.492-4.266l0.3-.316,0.026,0.049a0.845,0.845,0,0,1,.828-0.338,1.161,1.161,0,0,1,.726.649,2.029,2.029,0,0,1-.248,2.168c-0.37.388-.755,0.792-1.15,1.208,0.013,0.023.026,0.047,0.038,0.071a24.381,24.381,0,0,0,.292.862,2.083,2.083,0,0,1-.228,1.569l-3.427,5.34c1.285-1.13,1.536-1.073,1.8-1.015a1.209,1.209,0,0,1,.762.669,1.811,1.811,0,0,1,.055,1.788l0.579-.582a0.9,0.9,0,0,1,1.462.2,2.082,2.082,0,0,1,.051,2.071c-0.327.567-.691,1.2-1.07,1.858a0.963,0.963,0,0,1,.805.678,2.023,2.023,0,0,1-.254,2.2,1.175,1.175,0,0,1-.091.084c-0.352.329-3.178,3.133-4.916,4.863A0.91,0.91,0,0,1,419.571,402.679Z" transform="translate(-321 -360)"/>
</svg>
